<?xml version="1.0" encoding="utf-8"?>
<!-- Generator: Adobe Illustrator 23.1.1, SVG Export Plug-In . SVG Version: 6.00 Build 0)  -->
<svg version="1.1" id="Layer_1" xmlns="http://www.w3.org/2000/svg" xmlns:xlink="http://www.w3.org/1999/xlink" x="0px" y="0px"
	 viewBox="0 0 841.9 595.3" style="enable-background:new 0 0 841.9 595.3;" xml:space="preserve">
<style type="text/css">
	.st0{fill:#FFFFFF;}
</style>
<g>
	<path class="st0" d="M358.4,287.6c-1-0.9-1.9-1.9-2.9-2.8l-24.8,26.6c40.7,38,104,36.6,143-2.4l-23.6-22
		C424.8,311.3,384.5,311.9,358.4,287.6 M352.7,196c-21.7,26-20.5,64.2,2.9,88.8l42.9-46L352.7,196z M403.5,233.3l42.9-46
		c-26.1-21.6-64.3-20.2-88.7,3.3L403.5,233.3z M478.8,303.5c36.2-41.7,33.2-104.9-7.5-142.9l-24.8,26.6c1,0.9,2,1.7,3,2.6
		c26.1,24.3,28.3,64.6,5.7,91.6L478.8,303.5z"/>
</g>
<g>
	<path class="st0" d="M418,397.7l6.5-14.4l6.6,14.4H418z M435,406.2h2l-11.5-24.9h-1.8l-11.5,24.9h2l3.2-7h14.5L435,406.2z
		 M392.5,396.4v-13.5h7.1c5.3,0,8.2,2.5,8.2,6.8c0,4.3-2.9,6.8-8.2,6.8H392.5z M410.1,406.2l-6.2-8.7c3.7-1.1,5.8-3.8,5.8-7.8
		c0-5.3-3.8-8.4-10-8.4h-8.9v24.9h1.8V398h7.1c0.9,0,1.6-0.1,2.4-0.2l6,8.3H410.1z M375.4,406.2h1.8v-23.3h9v-1.6h-19.8v1.6h9V406.2
		z M355.3,396.4h-7.1v-13.5h7.1c5.3,0,8.2,2.5,8.2,6.8C363.5,394,360.7,396.4,355.3,396.4 M355.3,381.3h-8.9v24.9h1.8V398h7.1
		c6.3,0,10-3.1,10-8.4C365.4,384.4,361.6,381.3,355.3,381.3 M327.1,404.7c-6.4,0-11.2-4.7-11.2-11c0-6.3,4.8-11,11.2-11
		c6.3,0,11.1,4.7,11.1,11C338.2,400,333.4,404.7,327.1,404.7 M327.1,406.4c7.4,0,13-5.4,13-12.6c0-7.3-5.6-12.6-13-12.6
		c-7.4,0-13,5.4-13,12.6S319.6,406.4,327.1,406.4 M306,406.2h1.8v-24.9H306V406.2z M278.4,404.6v-21.7h7.9c7.1,0,11.6,4.5,11.6,10.8
		c0,6.3-4.5,10.8-11.6,10.8H278.4z M276.6,406.2h9.9c7.9,0,13.3-5.2,13.3-12.5c0-7.3-5.3-12.5-13.3-12.5h-9.9V406.2z"/>
	<path class="st0" d="M538.9,396l3.2-8l3.2,8H538.9z M549.4,406h7.3l-11-24.9h-6.9l-11,24.9h7.2l2-4.8h10.5L549.4,406z M514.6,406
		h7.1v-19.3h7.6v-5.6h-22.3v5.6h7.7V406z M490.8,396l3.2-8l3.2,8H490.8z M501.2,406h7.3l-11-24.9h-6.9l-11,24.9h7.2l2-4.8h10.5
		L501.2,406z M460.5,400.4v-13.7h4.5c4.2,0,7.1,2.5,7.1,6.8c0,4.3-2.9,6.8-7.1,6.8H460.5z M453.5,406h11.8c8.3,0,13.9-4.8,13.9-12.5
		c0-7.7-5.7-12.5-13.9-12.5h-11.8V406z"/>
</g>
</svg>
