<?xml version='1.0' encoding='utf-8'?>
<!-- Generator: imaengine 6.0   -->
<svg xmlns:xlink="http://www.w3.org/1999/xlink" xmlns="http://www.w3.org/2000/svg" viewBox="0,0,841,595" style="enable-background:new 0 0 841 595;" version="1.1">
<defs/>
<g id="layer0">
<path d="M227.227,421.619C223.938,418.659 220.978,415.37 217.689,412.41L136.124,499.895C269.983,624.873 478.17,620.269 606.437,492.002L528.819,419.646C445.61,499.566 313.067,501.539 227.227,421.619L227.227,421.619ZM208.48,120.355C137.111,205.867 141.058,331.503 218.018,412.41L359.112,261.12L208.48,120.355L208.48,120.355ZM375.556,243.031L516.65,91.7418C430.81,20.7015 305.174,25.306 224.925,102.595L375.556,243.031L375.556,243.031ZM623.211,473.913C742.269,336.765 732.402,128.906 598.544,3.92811L516.979,91.413C520.268,94.373 523.557,97.0041 526.846,99.9641C612.686,179.884 619.922,312.427 545.593,401.228L623.211,473.913L623.211,473.913Z" fill="#FFFFFF"/>
</g>
</svg>
